<svg width="32" height="32" viewBox="0 0 32 32" fill="none" xmlns="http://www.w3.org/2000/svg">
<path d="M27.107 5.27701C25.0356 4.30671 22.8208 3.60154 20.5052 3.20001C20.2208 3.71476 19.8886 4.40711 19.6595 4.95786C17.198 4.58725 14.7591 4.58725 12.3429 4.95786C12.1139 4.40711 11.7741 3.71476 11.4871 3.20001C9.16908 3.60154 6.95167 4.3093 4.88026 5.28214C0.70219 11.6031 -0.430415 17.7671 0.135889 23.8435C2.907 25.9153 5.59255 27.1739 8.23277 27.9975C8.88465 27.0992 9.46605 26.1444 9.9669 25.1381C9.013 24.7752 8.09937 24.3274 7.2361 23.8075C7.46512 23.6376 7.68914 23.46 7.90557 23.2773C13.1709 25.7429 18.8919 25.7429 24.0943 23.2773C24.3133 23.46 24.5373 23.6376 24.7638 23.8075C23.898 24.3299 22.9818 24.7778 22.0279 25.1407C22.5288 26.1444 23.1077 27.1018 23.7621 28C26.4048 27.1764 29.0929 25.9179 31.864 23.8435C32.5285 16.7994 30.7289 10.692 27.107 5.27701ZM10.6842 20.1066C9.10363 20.1066 7.8074 18.6293 7.8074 16.8302C7.8074 15.0312 9.07595 13.5514 10.6842 13.5514C12.2926 13.5514 13.5887 15.0287 13.5611 16.8302C13.5636 18.6293 12.2926 20.1066 10.6842 20.1066ZM21.3157 20.1066C19.735 20.1066 18.4388 18.6293 18.4388 16.8302C18.4388 15.0312 19.7073 13.5514 21.3157 13.5514C22.9239 13.5514 24.2202 15.0287 24.1925 16.8302C24.1925 18.6293 22.9239 20.1066 21.3157 20.1066Z" fill="white"/>
</svg>
