<svg width="32" height="32" viewBox="0 0 32 32" fill="none" xmlns="http://www.w3.org/2000/svg">
<g clip-path="url(#clip0_798_3604)">
<path d="M16 0C13.8988 0 11.8183 0.413524 9.87706 1.21696C7.93585 2.0204 6.17203 3.19801 4.68629 4.68257C1.68571 7.68077 0 11.7472 0 15.9873C0 23.0537 4.592 29.0489 10.944 31.1752C11.744 31.3031 12 30.8075 12 30.3759C12 30.0082 12 29.001 12 27.674C7.568 28.6333 6.624 25.5317 6.624 25.5317C5.888 23.6772 4.848 23.1816 4.848 23.1816C3.392 22.1904 4.96 22.2223 4.96 22.2223C6.56 22.3343 7.408 23.869 7.408 23.869C8.8 26.2991 11.152 25.5797 12.064 25.196C12.208 24.1568 12.624 23.4534 13.072 23.0537C9.52 22.654 5.792 21.2791 5.792 15.1879C5.792 13.4133 6.4 11.9905 7.44 10.8554C7.28 10.4557 6.72 8.79302 7.6 6.63473C7.6 6.63473 8.944 6.20307 12 8.26544C13.264 7.91371 14.64 7.73785 16 7.73785C17.36 7.73785 18.736 7.91371 20 8.26544C23.056 6.20307 24.4 6.63473 24.4 6.63473C25.28 8.79302 24.72 10.4557 24.56 10.8554C25.6 11.9905 26.208 13.4133 26.208 15.1879C26.208 21.2951 22.464 22.638 18.896 23.0377C19.472 23.5333 20 24.5085 20 25.9954C20 28.1377 20 29.8643 20 30.3759C20 30.8075 20.256 31.3191 21.072 31.1752C27.424 29.0329 32 23.0537 32 15.9873C32 13.8878 31.5861 11.8089 30.7821 9.86923C29.978 7.92956 28.7994 6.16713 27.3137 4.68257C25.828 3.19801 24.0641 2.0204 22.1229 1.21696C20.1817 0.413524 18.1011 0 16 0Z" fill="url(#paint0_linear_798_3604)"/>
<path d="M16 0C13.8988 0 11.8183 0.413524 9.87706 1.21696C7.93585 2.0204 6.17203 3.19801 4.68629 4.68257C1.68571 7.68077 0 11.7472 0 15.9873C0 23.0537 4.592 29.0489 10.944 31.1752C11.744 31.3031 12 30.8075 12 30.3759C12 30.0082 12 29.001 12 27.674C7.568 28.6333 6.624 25.5317 6.624 25.5317C5.888 23.6772 4.848 23.1816 4.848 23.1816C3.392 22.1904 4.96 22.2223 4.96 22.2223C6.56 22.3343 7.408 23.869 7.408 23.869C8.8 26.2991 11.152 25.5797 12.064 25.196C12.208 24.1568 12.624 23.4534 13.072 23.0537C9.52 22.654 5.792 21.2791 5.792 15.1879C5.792 13.4133 6.4 11.9905 7.44 10.8554C7.28 10.4557 6.72 8.79302 7.6 6.63473C7.6 6.63473 8.944 6.20307 12 8.26544C13.264 7.91371 14.64 7.73785 16 7.73785C17.36 7.73785 18.736 7.91371 20 8.26544C23.056 6.20307 24.4 6.63473 24.4 6.63473C25.28 8.79302 24.72 10.4557 24.56 10.8554C25.6 11.9905 26.208 13.4133 26.208 15.1879C26.208 21.2951 22.464 22.638 18.896 23.0377C19.472 23.5333 20 24.5085 20 25.9954C20 28.1377 20 29.8643 20 30.3759C20 30.8075 20.256 31.3191 21.072 31.1752C27.424 29.0329 32 23.0537 32 15.9873C32 13.8878 31.5861 11.8089 30.7821 9.86923C29.978 7.92956 28.7994 6.16713 27.3137 4.68257C25.828 3.19801 24.0641 2.0204 22.1229 1.21696C20.1817 0.413524 18.1011 0 16 0Z" fill="black" fill-opacity="0.2"/>
</g>
<defs>
<linearGradient id="paint0_linear_798_3604" x1="3.10258" y1="-6.19821" x2="40.9675" y2="3.08655" gradientUnits="userSpaceOnUse">
<stop stop-color="#42F9C2"/>
<stop offset="0.390622" stop-color="#001ED3"/>
<stop offset="1" stop-color="#FF00E5"/>
</linearGradient>
<clipPath id="clip0_798_3604">
<rect width="32" height="32" fill="white"/>
</clipPath>
</defs>
</svg>
