<svg width="32" height="32" viewBox="0 0 32 32" fill="none" xmlns="http://www.w3.org/2000/svg">
<g clip-path="url(#clip0_390_2036)">
<path fill-rule="evenodd" clip-rule="evenodd" d="M30.3753 2.40019L30.2362 2.40576L30.0113 2.42714L29.8469 2.45145L29.4728 2.52843L29.143 2.61468L28.6222 2.77371L28.1605 2.9301L27.0185 3.35206L25.5312 3.94069L23.2731 4.87185L19.3837 6.51774L2.19978 14.1096C0.804927 14.6787 0.0742335 15.2352 0.00775862 15.7793C-0.081676 16.5107 0.610143 16.8895 1.66623 17.262L2.13993 17.4223L3.54768 17.8817L4.29815 18.1176L5.07351 18.3444C6.10943 18.6343 7.12485 18.8621 7.7723 18.8764C8.72657 18.8976 9.79176 18.494 10.9677 17.6657L19.1041 12.0649L21.781 10.2571L22.7032 9.6517L23.1817 9.35247L23.3747 9.24744C23.3837 9.24366 23.391 9.24113 23.3965 9.23984C23.58 9.19771 23.8344 9.14331 24.0067 9.30046C24.1789 9.45762 24.1614 9.755 24.1437 9.83479C24.128 9.90377 24.0258 10.0475 23.8555 10.2496L23.5513 10.5944C23.4929 10.6585 23.4308 10.7257 23.3652 10.7958L22.9336 11.249L22.4342 11.7589L21.287 12.9002L20.3508 13.8139L16.0247 17.9687L15.5965 18.4088L14.9121 19.0912L14.6649 19.3514C13.7199 20.3818 13.3425 21.301 15.1523 22.6155L15.39 22.7819L22.2726 27.5233L23.4382 28.3661C24.4755 29.1077 25.4573 29.6976 26.6337 29.5865C27.4216 29.5122 28.2343 28.7529 28.6474 26.488L29.1832 23.4657L29.6768 20.5669L30.324 16.6188L30.705 14.203L31.0645 11.8388L31.2857 10.3265L31.4875 8.88972L31.6662 7.54956L31.8178 6.32706C31.8861 5.74873 31.9429 5.22242 31.9858 4.75996C32.0246 4.34127 31.9758 3.80531 31.9365 3.57018C31.8972 3.33506 31.8153 2.99983 31.5171 2.75177C31.1641 2.45795 30.6191 2.396 30.3753 2.40019Z" fill="white"/>
</g>
<defs>
<clipPath id="clip0_390_2036">
<rect width="32" height="32" fill="white"/>
</clipPath>
</defs>
</svg>
