<svg width="32" height="32" viewBox="0 0 32 32" fill="none" xmlns="http://www.w3.org/2000/svg">
<g clip-path="url(#clip0_798_3596)">
<path d="M32 6.21176C30.8222 6.73882 29.5526 7.08517 28.2371 7.25082C29.5832 6.4527 30.6233 5.18776 31.1128 3.66682C29.8432 4.41976 28.4359 4.94682 26.9522 5.248C25.7438 3.95294 24.0459 3.2 22.1185 3.2C18.5239 3.2 15.587 6.09129 15.587 9.66023C15.587 10.1722 15.6482 10.6692 15.7553 11.136C10.3098 10.8649 5.4608 8.28988 2.23327 4.38964C1.6673 5.33835 1.34608 6.4527 1.34608 7.62729C1.34608 9.87106 2.49331 11.8588 4.26769 12.9882C3.18164 12.9882 2.17208 12.6871 1.2849 12.2353C1.2849 12.2353 1.2849 12.2353 1.2849 12.2805C1.2849 15.4127 3.54876 18.0329 6.54685 18.6202C5.99618 18.7708 5.41491 18.8461 4.81836 18.8461C4.40535 18.8461 3.99235 18.8009 3.59465 18.7256C4.42065 21.2706 6.82218 23.168 9.71319 23.2132C7.47992 24.96 4.6501 25.984 1.56023 25.984C1.04015 25.984 0.520077 25.9539 0 25.8936C2.90631 27.7308 6.36329 28.8 10.065 28.8C22.1185 28.8 28.7419 18.9515 28.7419 10.4132C28.7419 10.1271 28.7419 9.856 28.7266 9.56988C30.0115 8.66635 31.1128 7.52188 32 6.21176Z" fill="url(#paint0_linear_798_3596)"/>
</g>
<defs>
<linearGradient id="paint0_linear_798_3596" x1="31.659" y1="1.72" x2="-4.31941" y2="9.96967" gradientUnits="userSpaceOnUse">
<stop stop-color="#EC008C"/>
<stop offset="0.846071" stop-color="#5B10FF"/>
<stop offset="1" stop-color="#0468D6"/>
</linearGradient>
<clipPath id="clip0_798_3596">
<rect width="32" height="32" fill="white"/>
</clipPath>
</defs>
</svg>
