<svg width="32" height="32" viewBox="0 0 32 32" fill="none" xmlns="http://www.w3.org/2000/svg">
<g clip-path="url(#clip0_390_2033)">
<path d="M12.8 20.8L21.104 16L12.8 11.2V20.8ZM31.296 8.272C31.504 9.024 31.648 10.032 31.744 11.312C31.856 12.592 31.904 13.696 31.904 14.656L32 16C32 19.504 31.744 22.08 31.296 23.728C30.896 25.168 29.968 26.096 28.528 26.496C27.776 26.704 26.4 26.848 24.288 26.944C22.208 27.056 20.304 27.104 18.544 27.104L16 27.2C9.296 27.2 5.12 26.944 3.472 26.496C2.032 26.096 1.104 25.168 0.704 23.728C0.496 22.976 0.352 21.968 0.256 20.688C0.144 19.408 0.0959999 18.304 0.0959999 17.344L0 16C0 12.496 0.256 9.92 0.704 8.272C1.104 6.832 2.032 5.904 3.472 5.504C4.224 5.296 5.6 5.152 7.712 5.056C9.792 4.944 11.696 4.896 13.456 4.896L16 4.8C22.704 4.8 26.88 5.056 28.528 5.504C29.968 5.904 30.896 6.832 31.296 8.272Z" fill="white"/>
</g>
<defs>
<clipPath id="clip0_390_2033">
<rect width="32" height="32" fill="white"/>
</clipPath>
</defs>
</svg>
