<svg width="203" height="36" viewBox="0 0 203 36" fill="none" xmlns="http://www.w3.org/2000/svg">
<path d="M18.004 0V15.1629L17.7655 14.9245L16.8594 14.0185L15.9532 13.1126C15.8181 12.9775 15.7068 12.7232 15.6988 12.5404L15.5875 10.355L15.4445 7.49404C15.4365 7.31126 15.4763 7.00927 15.5319 6.83444L17.686 0.325828L17.7894 0C16.2552 0.015894 14.7768 0.222517 13.3619 0.603974L13.2586 0.921854L12.7896 2.32053L12.3206 3.71921C12.265 3.89404 12.0821 3.97351 11.9152 3.88609L10.5957 3.22649L8.97417 2.41589C7.67852 3.17086 6.47825 4.07682 5.41312 5.12583L5.71517 5.27682L8.4257 6.63576L11.1362 7.9947C11.3032 8.07417 11.4462 8.29669 11.4542 8.47947L11.5257 9.88609L11.5973 11.2927C11.6052 11.4755 11.4621 11.6185 11.2793 11.6106L9.77699 11.5311L8.47339 11.4676C8.29057 11.4596 8.06801 11.3166 7.98852 11.1497L5.27004 5.7298L5.11901 5.42781C4.07772 6.49272 3.16361 7.69272 2.41643 8.98808L2.56745 9.29007L3.2272 10.6013L3.88695 11.9126C3.96644 12.0795 3.88695 12.2623 3.72003 12.3179L2.32104 12.7788L0.604107 13.351C0.230514 14.7656 0.0158975 16.2517 0 17.7775L0.317951 17.6742L6.82005 15.5126C6.99492 15.457 7.28903 15.4172 7.4798 15.4252L10.8501 15.6L12.5352 15.6874C12.718 15.6954 12.9803 15.8146 13.1075 15.9417L14.9199 17.7616C15.055 17.8967 15.055 18.1113 14.9199 18.2384L14.0137 19.1444L13.1075 20.0503C12.9724 20.1854 12.718 20.2967 12.5352 20.3046L10.0075 20.4318L7.4798 20.5589C7.29698 20.5669 6.99492 20.5272 6.82005 20.4715L3.50541 19.3669L0.317951 18.3258L0 18.2225C0.0158975 19.7483 0.222566 21.2344 0.604107 22.649L0.922058 22.7523L2.32104 23.2132L3.72003 23.6742C3.8949 23.7298 3.97439 23.9126 3.88695 24.0795L2.41643 27.0119C3.17156 28.3073 4.07772 29.5073 5.11901 30.5722L5.27004 30.2702L6.78825 27.2424L7.98852 24.8503C8.06801 24.6834 8.29057 24.5404 8.47339 24.5325L9.77699 24.4689L11.2793 24.3894C11.4621 24.3815 11.6052 24.5245 11.5973 24.7073L11.5496 25.645L11.4542 27.5126C11.4462 27.6954 11.3032 27.9179 11.1362 27.9974L8.4257 29.3563L5.41312 30.8662C6.47825 31.9073 7.67852 32.8212 8.97417 33.5762L9.27622 33.4252L11.9073 32.106C12.0742 32.0265 12.257 32.106 12.3127 32.2729L12.7816 33.6715L13.2506 35.0702L13.3539 35.3881C14.7688 35.7616 16.2552 35.9762 17.7814 35.9921L17.6781 35.6742L16.1122 30.9616L15.516 29.1656C15.4604 28.9907 15.4206 28.6967 15.4286 28.506L15.5399 26.2967L15.6829 23.4596C15.6909 23.2768 15.8101 23.0146 15.9373 22.8874L17.7496 21.0755L17.9881 20.8371V36C27.9399 36 36 27.9417 36 18C36 8.05828 27.9479 0 18.004 0ZM22.9561 31.1046C22.6461 31.2238 22.3281 31.3272 22.3281 31.3272C22.1532 31.3828 22.0102 31.2795 22.0102 31.0887V4.91921C22.0102 4.73642 22.1532 4.62517 22.3281 4.68079C22.3281 4.68079 22.7176 4.80795 23.0594 4.9351C28.2976 6.96954 32.0177 12.0556 32.0177 17.9921C32.0177 23.9285 28.2499 29.0861 22.964 31.0887L22.9561 31.1046Z" fill="white"/>
<g clip-path="url(#clip0_1421_3383)">
<path d="M62.0706 15.3727H61.7092C60.6935 13.7025 58.8279 12.1007 55.302 12.1007C50.7896 12.1007 47 15.7731 47 21.565C47 27.3569 50.7896 30.9902 55.302 30.9902C58.8377 30.9902 60.6935 29.3884 61.7874 27.6401H62.1488V30.4823H65.4989V5H62.0804V15.3727H62.0706ZM56.2494 28.0113C52.8603 28.0113 50.4576 25.6086 50.4576 21.565C50.4576 17.5214 52.8603 15.0796 56.2494 15.0796C59.6386 15.0796 62.1097 17.5214 62.1097 21.565C62.1097 25.6086 59.6288 28.0113 56.2494 28.0113Z" fill="white"/>
<path d="M97.8377 8.89707C97.8377 8.16454 98.1991 7.80316 98.8535 7.80316H106.638V5H97.7303C95.728 5 94.4192 6.26972 94.4192 8.35011V12.6086H89.2134V15.4117H94.4192V30.4823H97.8377V15.4117H103.151V12.6086H97.8377V8.89707Z" fill="white"/>
<path d="M110.056 12.6086H106.638V30.4824H110.056V12.6086Z" fill="white"/>
<path d="M123.281 27.9722C119.97 27.9722 117.421 25.423 117.421 21.565C117.421 17.707 119.931 15.1187 123.281 15.1187C125.986 15.1187 127.745 16.6326 128.321 18.7716H131.798C131.046 15.0308 128.008 12.1006 123.242 12.1006C118.075 12.1006 113.953 15.9977 113.953 21.565C113.953 27.1322 118.065 30.9902 123.242 30.9902C128.145 30.9902 131.056 28.0601 131.935 24.2118H128.438C127.784 26.4387 126.152 27.9722 123.281 27.9722Z" fill="white"/>
<path d="M145.579 12.2863C142.044 12.2863 140.413 13.849 139.612 15.3433H139.25V5H135.832V30.4823H139.25V21.3794C139.25 17.2968 141.399 15.1187 144.603 15.1187C147.484 15.1187 149.222 16.6131 149.222 19.885V30.4823H152.612V19.7092C152.612 15.0503 149.594 12.2863 145.589 12.2863H145.579Z" fill="white"/>
<path d="M157.876 12.6086V15.4215H169.362V19.4553L163.023 20.3637C159.351 20.8715 156.469 22.3659 156.469 25.7551C156.469 29.1443 159.234 31 162.955 31C166.676 31 168.268 29.2517 169.108 27.9038H169.43V30.4921H172.741V12.6086H157.866H157.876ZM169.362 22.7664C169.362 26.263 166.959 28.3043 163.57 28.3043C161.207 28.3043 159.888 27.2495 159.888 25.6086C159.888 23.9677 161.304 23.1668 163.385 22.8445L169.352 22.0045V22.7664H169.362Z" fill="white"/>
<path d="M181.063 12.6086H177.645V30.4824H181.063V12.6086Z" fill="white"/>
<path d="M195.87 12.2863C192.334 12.2863 190.625 13.8881 189.824 15.4899H189.463V12.6086H186.113V30.4823H189.531V21.3794C189.531 17.2968 191.68 15.1187 194.884 15.1187C197.765 15.1187 199.503 16.6131 199.503 19.8851V30.4823H202.893V19.7092C202.893 15.0503 199.875 12.2863 195.87 12.2863Z" fill="white"/>
<path d="M87.133 24.7295H83.9294C83.1285 26.4387 81.6341 28.0112 78.7235 28.0112C75.4418 28.0112 73.3028 25.7941 73.1172 22.6198H87.133V20.9789C87.133 15.5582 83.5973 12.0909 78.5087 12.0909C73.42 12.0909 69.5522 16.0563 69.5522 21.4087C69.5522 26.7611 73.3028 30.9804 78.7626 30.9804C83.529 30.9804 85.6093 28.4312 86.8107 26.2825C87.1623 25.4913 87.133 24.7197 87.133 24.7197V24.7295ZM78.5087 15.0796C81.4583 15.0796 83.4215 16.867 83.6071 19.846H73.1172C73.4493 16.9744 75.4125 15.0796 78.5087 15.0796Z" fill="white"/>
</g>
<path d="M177.696 0.280029V7.00003H178.771V1.43203H178.867L180.518 7.00003H182.083L183.725 1.43203H183.821V7.00003H184.906V0.280029H182.995L181.344 5.87683H181.248L179.606 0.280029H177.696Z" fill="white"/>
<path d="M186.595 0.280029V7.00003H191.001V5.99203H187.708V4.12003H190.675V3.11203H187.708V1.28803H190.944V0.280029H186.595Z" fill="white"/>
<path d="M191.891 0.280029V1.28803H193.994V7.00003H195.098V1.28803H197.2V0.280029H191.891Z" fill="white"/>
<path d="M199.251 0.280029L197.273 7.00003H198.416L198.867 5.43523H201.363L201.814 7.00003H202.947L200.969 0.280029H199.251ZM199.136 4.42723L200.067 1.21123H200.163L201.084 4.42723H199.136Z" fill="white"/>
<defs>
<clipPath id="clip0_1421_3383">
<rect width="155.902" height="26" fill="white" transform="translate(47 5)"/>
</clipPath>
</defs>
</svg>
