<svg width="185" height="36" viewBox="0 0 185 36" fill="none" xmlns="http://www.w3.org/2000/svg">
<path d="M164.07 4.04825L161.859 0.393738H160.729V6.28942H162.001V2.80653L163.737 5.65341H164.343L166.079 2.76614L166.089 6.28942H167.361V0.393738H166.23L164.07 4.04825Z" fill="white"/>
<path d="M169.824 3.82616H172.57V2.75605H169.824V1.48404H172.924V0.393738H168.472V6.28942H173.035V5.18903H169.824V3.82616Z" fill="white"/>
<path d="M178.698 0.393738H173.569V1.50423H175.447V6.28942H176.82V1.50423H178.698V0.393738Z" fill="white"/>
<path d="M183.15 6.28942H184.584L181.939 0.393738H180.596L177.981 6.28942H179.375L179.9 5.0275H182.625L183.15 6.28942ZM180.324 3.98768L181.262 1.73642L182.201 3.98768H180.334H180.324Z" fill="white"/>
<path d="M58.372 15.7993C57.7865 15.0421 57.1 14.4263 56.2924 13.9821C55.1213 13.336 53.8089 13.0029 52.3653 13.0029C50.6995 13.0029 49.2054 13.3764 47.9031 14.1033C46.5907 14.8402 45.561 15.8598 44.8039 17.1722C44.0467 18.4846 43.6631 20.009 43.6631 21.7656C43.6631 23.5222 44.0467 25.0567 44.8039 26.3792C45.561 27.7017 46.5907 28.7314 47.9031 29.4684C49.2155 30.2053 50.6995 30.5688 52.3653 30.5688C53.8594 30.5688 55.192 30.2356 56.363 29.5794C57.2009 29.1049 57.9177 28.4588 58.5032 27.6512V30.3769H61.4915V6.27936H58.372V15.7892V15.7993ZM57.6451 24.9759C57.1404 25.8946 56.4438 26.6013 55.5655 27.1061C54.6872 27.6007 53.708 27.8531 52.6278 27.8531C51.5476 27.8531 50.538 27.6007 49.6698 27.1061C48.8016 26.6114 48.1151 25.8946 47.5902 24.9759C47.0753 24.0573 46.8128 22.9872 46.8128 21.7757C46.8128 20.5643 47.0753 19.474 47.5902 18.5755C48.105 17.677 48.8016 16.9804 49.6698 16.4858C50.538 15.9911 51.5173 15.7387 52.6278 15.7387C53.7382 15.7387 54.6872 15.9911 55.5655 16.4858C56.4438 16.9804 57.1303 17.6871 57.6451 18.5755C58.1499 19.474 58.4124 20.5441 58.4124 21.7757C58.4124 23.0073 58.16 24.0573 57.6451 24.9759Z" fill="white"/>
<path d="M77.9364 14.1133C76.6543 13.3764 75.1905 13.0129 73.5147 13.0129C71.8388 13.0129 70.3952 13.3865 69.0828 14.1335C67.7704 14.8806 66.7407 15.9103 65.9936 17.2328C65.2466 18.5553 64.873 20.0696 64.873 21.7757C64.873 23.4818 65.2567 25.0062 66.0239 26.3186C66.7912 27.6411 67.8714 28.6809 69.2746 29.4381C70.6678 30.1952 72.2931 30.5788 74.1305 30.5788C75.564 30.5788 76.8562 30.3366 78.0071 29.8621C79.168 29.3876 80.1372 28.691 80.9145 27.7824L79.1882 25.7735C78.5623 26.47 77.8254 26.9849 76.9976 27.3281C76.1596 27.6714 75.241 27.843 74.2213 27.843C72.9897 27.843 71.8893 27.5906 70.9403 27.0959C69.9914 26.6013 69.2443 25.9047 68.7194 25.0062C68.3257 24.3399 68.0834 23.6131 67.9824 22.8155H81.9544C81.9746 22.6641 81.9947 22.5026 82.0048 22.3309C82.0149 22.1593 82.025 22.0079 82.025 21.8767C82.025 20.0999 81.6616 18.5452 80.9347 17.2126C80.2079 15.88 79.2084 14.8503 77.9263 14.1133H77.9364ZM70.6274 16.3747C71.4754 15.8901 72.4345 15.6478 73.5147 15.6478C74.5949 15.6478 75.5842 15.8901 76.4221 16.3747C77.26 16.8593 77.9061 17.5357 78.3907 18.4039C78.7541 19.0601 78.9661 19.7869 79.0469 20.5844H67.9824C68.0733 19.797 68.2954 19.0802 68.6487 18.424C69.1232 17.5457 69.7895 16.8694 70.6274 16.3747Z" fill="white"/>
<path d="M99.9349 13.1644H96.8154V30.3769H99.9349V13.1644Z" fill="white"/>
<path d="M91.4844 6.08752C89.6672 6.08752 88.264 6.59229 87.2746 7.60183C86.2853 8.61136 85.8007 9.95404 85.8007 11.6501V13.1745H82.873V15.7387H85.8007V30.387H88.9202V15.7387H93.8568V13.1745H88.8596V11.6803C88.8596 10.6809 89.1019 9.93385 89.5764 9.41899C90.0508 8.91422 90.7474 8.65174 91.656 8.65174C92.1103 8.65174 92.5444 8.72241 92.9583 8.86374C93.3722 9.00508 93.7356 9.20699 94.0587 9.46946L94.9976 7.09706C94.5635 6.75382 94.0385 6.49134 93.4227 6.32981C92.8069 6.16829 92.1608 6.08752 91.4945 6.08752H91.4844Z" fill="white"/>
<path d="M109.393 16.4857C110.282 15.9911 111.291 15.7387 112.412 15.7387C113.341 15.7387 114.219 15.9406 115.027 16.3444C115.834 16.7482 116.521 17.364 117.086 18.212L119.459 16.6876C118.782 15.4762 117.843 14.5575 116.622 13.9417C115.4 13.3259 114.007 13.0129 112.452 13.0129C110.696 13.0129 109.131 13.3865 107.758 14.1335C106.385 14.8806 105.305 15.9103 104.528 17.2328C103.75 18.5553 103.356 20.0696 103.356 21.7757C103.356 23.4818 103.75 25.0062 104.528 26.3186C105.305 27.6411 106.385 28.6809 107.758 29.4381C109.131 30.1952 110.696 30.5788 112.452 30.5788C114.007 30.5788 115.4 30.2558 116.622 29.6198C117.843 28.9838 118.792 28.0651 119.459 26.8738L117.086 25.3797C116.521 26.2277 115.834 26.8436 115.027 27.2474C114.219 27.6512 113.341 27.8531 112.412 27.8531C111.281 27.8531 110.282 27.6007 109.393 27.106C108.505 26.6114 107.798 25.9047 107.284 24.9961C106.769 24.0875 106.506 23.0174 106.506 21.7858C106.506 20.5542 106.769 19.4841 107.284 18.5856C107.798 17.6871 108.505 16.9905 109.393 16.4958V16.4857Z" fill="white"/>
<path d="M135.026 13.8206C133.956 13.2754 132.714 13.013 131.311 13.013C129.756 13.013 128.383 13.3259 127.222 13.9518C126.415 14.3859 125.758 14.9513 125.243 15.6176V6.27936H122.124V30.3769H125.243V21.5132C125.243 20.2614 125.466 19.2115 125.91 18.3635C126.354 17.5155 126.99 16.8795 127.808 16.4454C128.636 16.0113 129.595 15.7993 130.695 15.7993C132.169 15.7993 133.31 16.2233 134.117 17.0612C134.925 17.9092 135.339 19.161 135.339 20.8268V30.3769H138.458V20.4734C138.458 18.7875 138.155 17.3842 137.55 16.2838C136.944 15.1835 136.106 14.3556 135.036 13.8206H135.026Z" fill="white"/>
<path d="M149.118 13.0028C147.756 13.0028 146.453 13.1946 145.201 13.5681C143.96 13.9518 142.89 14.4969 142.001 15.2036L143.303 17.5457C143.97 16.9804 144.798 16.5362 145.777 16.1929C146.746 15.8598 147.745 15.6882 148.765 15.6882C150.3 15.6882 151.45 16.0516 152.228 16.7785C152.995 17.5053 153.379 18.525 153.379 19.8475V20.4633H148.442C146.736 20.4633 145.373 20.6955 144.363 21.1498C143.354 21.604 142.627 22.2098 142.183 22.9669C141.739 23.7241 141.517 24.5721 141.517 25.5008C141.517 26.4296 141.779 27.3483 142.294 28.1155C142.809 28.8828 143.556 29.4885 144.515 29.9226C145.474 30.3567 146.595 30.5687 147.877 30.5687C149.462 30.5687 150.764 30.2759 151.804 29.6803C152.541 29.2563 153.106 28.7314 153.53 28.0953V30.3769H156.488V19.9888C156.488 17.6265 155.852 15.88 154.57 14.7291C153.288 13.5782 151.471 13.0028 149.118 13.0028ZM151.471 27.3887C150.592 27.9035 149.573 28.166 148.402 28.166C147.231 28.166 146.282 27.9136 145.605 27.3988C144.929 26.894 144.596 26.2176 144.596 25.3696C144.596 24.6326 144.868 24.0067 145.403 23.4818C145.948 22.9669 146.998 22.7044 148.553 22.7044H153.358V25.1071C152.965 26.1066 152.339 26.8637 151.461 27.3786L151.471 27.3887Z" fill="white"/>
<path d="M163.889 13.1644H160.77V30.3769H163.889V13.1644Z" fill="white"/>
<path d="M183.737 16.2838C183.131 15.1834 182.293 14.3556 181.223 13.8206C180.153 13.2754 178.911 13.0129 177.508 13.0129C175.953 13.0129 174.58 13.3259 173.419 13.9518C172.551 14.4162 171.845 15.032 171.31 15.7791V13.1745H168.321V30.387H171.441V21.5233C171.441 20.2715 171.663 19.2216 172.107 18.3736C172.551 17.5256 173.187 16.8896 174.005 16.4555C174.833 16.0214 175.792 15.8093 176.892 15.8093C178.366 15.8093 179.507 16.2334 180.315 17.0713C181.122 17.9193 181.536 19.1711 181.536 20.8368V30.387H184.656V20.4835C184.656 18.7976 184.353 17.3943 183.747 16.2939L183.737 16.2838Z" fill="white"/>
<path d="M21.9978 31.4773V4.59338C27.7824 6.31969 32.0123 11.6904 32.0123 18.0404C32.0123 24.3904 27.7824 29.7611 21.9978 31.4874V31.4773ZM17.9899 0V15.2036L15.6983 12.9119L15.4055 7.19798L17.7981 0.0100953C16.2636 0.030286 14.7897 0.242288 13.3763 0.615816L12.2255 4.08861L8.95457 2.44307C7.66237 3.20022 6.46102 4.09871 5.39091 5.13853L11.4582 8.17723L11.6399 11.65L8.16713 11.4683L5.12844 5.40101C4.08861 6.47112 3.18003 7.66237 2.43298 8.96467L4.07852 12.2356L0.605721 13.3864C0.232193 14.7998 0.0100953 16.2838 0 17.8082L7.18789 15.4156L12.9019 15.7084L15.1935 18L12.9019 20.2916L7.18789 20.5844L0 18.1918C0.0201907 19.7263 0.232193 21.2002 0.605721 22.6136L4.07852 23.7644L2.43298 27.0353C3.19013 28.3275 4.08861 29.5289 5.12844 30.599L8.16713 24.5317L11.6399 24.35L11.4582 27.8228L5.39091 30.8615C6.46102 31.9013 7.65227 32.8099 8.95457 33.5569L12.2255 31.9114L13.3763 35.3842C14.7897 35.7577 16.2737 35.9798 17.7981 35.9899L15.4055 28.802L15.6983 23.0881L17.9899 20.7964V36C27.954 36 36.0202 27.9237 36.0202 17.9697C36.0202 8.01571 27.9439 0 17.9899 0Z" fill="#FF00AF"/>
</svg>
