<svg width="149" height="44" viewBox="0 0 149 44" fill="none" xmlns="http://www.w3.org/2000/svg">
<path fill-rule="evenodd" clip-rule="evenodd" d="M47.6633 9V33.0406H66.6224V29.1506H52.2191V22.7024H64.8702V18.8125H52.2191V12.8899H66.4122V9H47.6633ZM71.2089 9V33.0406H75.7647V23.2281H87.2243V19.3382H75.7647V12.8899H88.4859V9H71.2089ZM92.5642 9V33.0406H97.12V9H92.5642ZM106.072 9.23902V18.9116H107.834V14.0189C107.834 13.7275 107.829 13.4032 107.82 13.046C107.811 12.6794 107.801 12.3222 107.792 11.9744C107.782 11.6172 107.773 11.3117 107.764 11.0579H107.876C107.933 11.2741 107.994 11.5279 108.06 11.8193C108.135 12.1107 108.205 12.3974 108.271 12.6794C108.346 12.952 108.412 13.187 108.469 13.3844L110.062 18.9116H111.754L113.347 13.3703C113.413 13.1353 113.488 12.8533 113.573 12.5243C113.657 12.1953 113.737 11.8898 113.812 11.6078C113.888 11.3258 113.935 11.1425 113.953 11.0579H114.066C114.066 11.1143 114.057 11.2976 114.038 11.6078C114.029 11.918 114.019 12.2893 114.01 12.7217C114 13.1541 113.996 13.5865 113.996 14.0189V18.9116H115.829V9.23902H112.966L111.444 14.6111C111.378 14.8367 111.317 15.0717 111.26 15.3161C111.213 15.5511 111.171 15.772 111.133 15.9788C111.096 16.1856 111.068 16.3595 111.049 16.5005H110.936C110.908 16.3407 110.866 16.1527 110.809 15.9365C110.762 15.7203 110.71 15.4947 110.654 15.2597C110.598 15.0247 110.541 14.8132 110.485 14.6252L108.962 9.23902H106.072ZM117.968 9.23902V18.9116H125.597V17.3465H119.801V14.7521H124.892V13.187H119.801V10.8041H125.512V9.23902H117.968ZM129.811 10.8182V18.9116H131.644V10.8182H134.746V9.23902H126.723V10.8182H129.811ZM137.737 9.23902L133.973 18.9116H135.862L136.638 16.853H141.065L141.84 18.9116H143.829L140.05 9.23902H137.737ZM140.473 15.302H137.216L138.189 12.6794C138.236 12.5572 138.297 12.388 138.372 12.1718C138.447 11.9556 138.522 11.7253 138.597 11.4809C138.682 11.2365 138.753 11.0203 138.809 10.8323H138.879C138.926 10.9733 138.978 11.1331 139.035 11.3117L139.204 11.8475C139.26 12.0167 139.312 12.1765 139.359 12.3269L139.5 12.6794L140.473 15.302ZM107.792 32.5591C108.497 32.9069 109.343 33.0808 110.33 33.0808C111.138 33.0808 111.862 32.9492 112.501 32.686C113.15 32.4134 113.662 32.0045 114.038 31.4593C114.414 30.9047 114.602 30.2044 114.602 29.3584H112.797C112.797 29.8284 112.694 30.2279 112.487 30.5569C112.29 30.8765 112.008 31.1209 111.641 31.2901C111.274 31.4499 110.847 31.5298 110.358 31.5298C109.709 31.5298 109.174 31.4076 108.751 31.1632C108.337 30.9188 108.027 30.5522 107.82 30.0634C107.623 29.5746 107.524 28.9636 107.524 28.2304V27.9202C107.524 27.1964 107.623 26.5901 107.82 26.1013C108.027 25.6125 108.342 25.2459 108.765 25.0015C109.188 24.7477 109.719 24.6208 110.358 24.6208C110.819 24.6208 111.227 24.7054 111.585 24.8746C111.942 25.0438 112.219 25.2929 112.417 25.6219C112.623 25.9415 112.727 26.3363 112.727 26.8063H114.602C114.602 25.9603 114.409 25.2647 114.024 24.7195C113.648 24.1649 113.136 23.7513 112.487 23.4787C111.848 23.2061 111.129 23.0698 110.33 23.0698C108.854 23.0698 107.702 23.4787 106.875 24.2965C106.048 25.1143 105.634 26.3739 105.634 28.0753C105.634 29.2409 105.818 30.195 106.184 30.9376C106.56 31.6708 107.096 32.2113 107.792 32.5591ZM118.066 23.239H116.233V32.9116H118.066V28.7521H122.578V32.9116H124.411V23.239H122.578V27.1729H118.066V23.239ZM131.637 23.239H129.324L125.56 32.9116H127.449L128.224 30.853H132.652L133.427 32.9116H135.415L131.637 23.239ZM132.06 29.302H128.803L129.775 26.6794C129.822 26.5572 129.883 26.388 129.959 26.1718C130.034 25.9556 130.109 25.7253 130.184 25.4809C130.269 25.2365 130.339 25.0203 130.396 24.8323H130.466C130.513 24.9733 130.565 25.1331 130.621 25.3117L130.791 25.8475C130.847 26.0167 130.899 26.1765 130.946 26.3269L131.087 26.6794L132.06 29.302ZM138.39 23.239H136.557V32.9116H138.39V23.239ZM142.285 23.239H140.537V32.9116H142.299V27.1588V26.7781V26.3974H142.37C142.407 26.4632 142.473 26.5807 142.567 26.7499C142.67 26.9097 142.76 27.046 142.835 27.1588L146.98 32.9116H148.715V23.239H146.952V28.9495V29.3161V29.6968H146.882C146.863 29.6404 146.825 29.5652 146.769 29.4712C146.712 29.3772 146.651 29.2832 146.586 29.1892C146.52 29.0858 146.463 29.0059 146.416 28.9495L142.285 23.239Z" fill="white"/>
<path d="M0 21.3139C0.0345307 20.8448 0.0690613 20.3756 0.138123 19.9245C0.310777 18.8238 0.483431 17.7231 0.690615 16.6404C0.70788 16.5322 0.846003 16.4058 0.966861 16.3517C2.08911 15.9547 3.22862 15.5578 4.35087 15.1608C4.47173 15.1247 4.57532 15.0706 4.71345 15.0164C4.66165 14.8901 4.62712 14.7999 4.57532 14.6916C4.0401 13.5548 3.4876 12.4361 2.95238 11.2993C2.90058 11.209 2.88332 11.0466 2.95238 10.9564C3.74659 9.53091 4.69618 8.23171 5.76663 7.04077C5.80116 7.00469 5.85296 6.9686 5.90476 6.91446C6.181 7.49188 6.43998 8.03322 6.71623 8.5926C7.56223 10.3429 8.39097 12.0752 9.21971 13.8255C9.3233 14.0601 9.46142 14.1322 9.70314 14.1503C10.7218 14.1864 11.7232 14.2586 12.7418 14.3127C12.949 14.3127 13.1562 14.3127 13.3461 14.3127C13.3461 13.7714 13.3461 13.2661 13.3461 12.7428C13.3289 11.985 13.2598 11.2271 13.2425 10.4692C13.2425 10.2166 13.1389 10.0722 12.9318 9.96398C10.8254 8.86327 8.71901 7.76255 6.61264 6.66184C6.52631 6.60771 6.43998 6.55357 6.30186 6.4814C6.61264 6.19268 6.87162 5.88593 7.18239 5.65135C8.13199 4.91153 9.09885 4.20779 10.0484 3.46797C10.2384 3.32361 10.3938 3.34166 10.6009 3.46797C11.6541 4.02735 12.7073 4.58673 13.7778 5.12806C13.8641 5.18219 13.9677 5.21828 14.0885 5.27242C14.2785 4.69499 14.4511 4.15366 14.6238 3.61233C14.8655 2.8725 15.1072 2.11464 15.3316 1.37481C15.3834 1.19437 15.4698 1.10415 15.6597 1.05001C17.1272 0.671079 18.6121 0.436501 20.1314 0.418457C20.2177 0.418457 20.2868 0.418457 20.4077 0.436501C20.1487 1.28459 19.8897 2.09659 19.6307 2.90859C19.0264 4.83935 18.4049 6.75206 17.8006 8.68282C17.7315 8.88131 17.7143 9.09784 17.7143 9.29633C17.8006 11.2451 17.9042 13.1939 17.9905 15.1608C18.0078 15.5938 18.1286 15.9367 18.4567 16.2615C19.13 16.9111 19.7689 17.6148 20.4077 18.2825C20.494 18.3727 20.5631 18.4449 20.7012 18.5712V0.436501C21.2191 0.436501 21.6853 0.400412 22.1515 0.436501C23.7399 0.562812 25.2938 0.851524 26.8131 1.35677C30.4906 2.56575 33.6157 4.69499 36.171 7.72646C38.6054 10.6136 40.1592 13.9518 40.9017 17.7051C41.2642 19.5456 41.3851 21.4042 41.247 23.2627C40.7981 29.5963 38.191 34.7932 33.4603 38.781C30.9913 40.8741 28.1598 42.2455 25.052 42.9312C23.9125 43.1838 22.7558 43.238 21.599 43.4004C21.4609 43.4004 21.34 43.4365 21.2019 43.4725H20.6839C20.6839 43.4725 20.6839 43.2921 20.6839 43.2019C20.6839 37.3374 20.6839 31.491 20.6839 25.6266C20.6839 25.5363 20.6839 25.4461 20.6666 25.2837C20.5458 25.392 20.4595 25.4822 20.3731 25.5544C19.7171 26.2401 19.0782 26.9438 18.4049 27.5934C18.0941 27.9002 17.9905 28.225 17.9732 28.64C17.8869 30.6068 17.7833 32.5556 17.697 34.5225C17.697 34.721 17.7143 34.9375 17.7833 35.136C18.3876 37.0668 19.0092 39.0156 19.6307 40.9463C19.8897 41.7403 20.1314 42.5523 20.3904 43.3462C20.3386 43.3643 20.3213 43.4004 20.2868 43.4004C20.235 43.4004 20.166 43.4004 20.1142 43.4004C18.5948 43.3823 17.11 43.1297 15.6424 42.7688C15.4525 42.7147 15.3662 42.6064 15.3144 42.426C14.9518 41.2711 14.5892 40.1163 14.2267 38.9614C14.1921 38.8351 14.1403 38.7088 14.0885 38.5464C13.9677 38.6005 13.8814 38.6366 13.795 38.6908C12.7246 39.2501 11.6541 39.8095 10.5664 40.3869C10.4283 40.4591 10.3074 40.4952 10.152 40.3869C9.04705 39.6832 7.9766 38.8892 7.00974 37.987C6.78529 37.7705 6.56084 37.572 6.31913 37.3374C6.45725 37.2652 6.56084 37.2111 6.64717 37.157C8.75354 36.0563 10.8599 34.9556 12.9663 33.8548C13.1562 33.7466 13.2425 33.6203 13.2598 33.4037C13.3116 32.2308 13.3634 31.0579 13.4325 29.8851C13.4497 29.5783 13.3634 29.5061 13.0872 29.5242C11.9649 29.5964 10.8599 29.6505 9.73767 29.7046C9.49595 29.7046 9.3751 29.7948 9.25424 30.0294C8.30464 32.0143 7.35505 33.9992 6.40545 35.9841C6.25006 36.2908 6.11194 36.5976 5.95655 36.9224C5.90476 36.8863 5.87023 36.8683 5.85296 36.8322C4.74798 35.6412 3.81565 34.324 3.00417 32.8985C2.95238 32.8083 2.95238 32.6278 3.00417 32.5196C3.5394 31.3828 4.07463 30.2459 4.62712 29.1272C4.67892 29.037 4.71345 28.9287 4.76524 28.8024C4.62712 28.7483 4.52353 28.6941 4.40267 28.658C3.28042 28.2611 2.14091 27.8821 1.01866 27.4671C0.915065 27.431 0.776942 27.2867 0.742411 27.1784C0.552492 26.0777 0.362573 24.995 0.189919 23.8943C0.120858 23.4612 0.103593 23.0101 0.0517965 22.559V22.144C0.0517965 22.144 0.155388 22.1981 0.207184 22.2162C2.84879 23.1364 5.49039 24.0567 8.13199 24.9589C8.23558 24.995 8.33917 25.0131 8.44277 25.0131C8.83987 25.0131 9.23697 24.977 9.65134 24.9589C11.2916 24.8687 12.9318 24.7785 14.572 24.6702C14.7274 24.6702 14.9345 24.58 15.0381 24.4717C15.7978 23.6958 16.5575 22.9019 17.3172 22.1079C17.369 22.0538 17.4208 21.9816 17.4898 21.8914C16.6266 20.9891 15.7805 20.105 14.9173 19.2208C14.8655 19.1667 14.7792 19.1486 14.7101 19.1486C14.054 19.1125 13.3979 19.0584 12.7418 19.0223C11.3433 18.9501 9.94485 18.8599 8.54636 18.8058C8.39097 18.8058 8.21832 18.8419 8.08019 18.8779C6.25006 19.5095 4.41994 20.1411 2.60707 20.7726C1.76107 21.0613 0.93233 21.3681 0.103592 21.6748C0.103592 21.5485 0.103592 21.4403 0.103592 21.3139H0ZM25.2074 37.969C31.164 36.3269 37.673 29.4881 36.5853 19.8523C36.1019 15.5036 34.1682 11.9128 30.9913 9.0798C29.2993 7.56406 27.3829 6.4814 25.2074 5.81375V37.987V37.969Z" fill="white"/>
</svg>
