<svg width="45" height="35" viewBox="0 0 45 35" fill="none" xmlns="http://www.w3.org/2000/svg">
<path d="M38.1193 2.91737C35.2064 1.55448 32.0917 0.563994 28.8354 0C28.4355 0.72302 27.9683 1.6955 27.6462 2.4691C24.1847 1.94853 20.755 1.94853 17.3572 2.4691C17.0351 1.6955 16.5573 0.72302 16.1538 0C12.894 0.563994 9.77579 1.55812 6.86286 2.92459C0.987455 11.8031 -0.605271 20.4611 0.191094 28.9961C4.08797 31.9062 7.86452 33.674 11.5773 34.8308C12.494 33.5691 13.3116 32.228 14.016 30.8145C12.6745 30.3048 11.3897 29.6758 10.1758 28.9455C10.4978 28.7069 10.8129 28.4575 11.1172 28.2008C18.5216 31.664 26.5667 31.664 33.8826 28.2008C34.1906 28.4575 34.5055 28.7069 34.8241 28.9455C33.6065 29.6794 32.3182 30.3084 30.9768 30.8181C31.6811 32.228 32.4952 33.5728 33.4154 34.8344C37.1318 33.6776 40.9119 31.9099 44.8087 28.9961C45.7432 19.1018 43.2125 10.5234 38.1193 2.91737ZM15.0247 23.7472C12.802 23.7472 10.9792 21.6721 10.9792 19.1452C10.9792 16.6183 12.7631 14.5397 15.0247 14.5397C17.2864 14.5397 19.1092 16.6147 19.0703 19.1452C19.0738 21.6721 17.2864 23.7472 15.0247 23.7472ZM29.9751 23.7472C27.7524 23.7472 25.9296 21.6721 25.9296 19.1452C25.9296 16.6183 27.7134 14.5397 29.9751 14.5397C32.2368 14.5397 34.0596 16.6147 34.0207 19.1452C34.0207 21.6721 32.2368 23.7472 29.9751 23.7472Z" fill="white"/>
</svg>
