<svg width="45" height="44" viewBox="0 0 45 44" fill="none" xmlns="http://www.w3.org/2000/svg">
<path d="M22.5 0C19.5453 0 16.6194 0.583175 13.8896 1.71623C11.1598 2.84928 8.67942 4.51002 6.5901 6.60363C2.37053 10.8319 0 16.5666 0 22.5462C0 32.5116 6.4575 40.9664 15.39 43.9651C16.515 44.1454 16.875 43.4465 16.875 42.8378C16.875 42.3192 16.875 40.8988 16.875 39.0275C10.6425 40.3802 9.315 36.0063 9.315 36.0063C8.28 33.3909 6.8175 32.692 6.8175 32.692C4.77 31.2941 6.975 31.3392 6.975 31.3392C9.225 31.497 10.4175 33.6615 10.4175 33.6615C12.375 37.0885 15.6825 36.0739 16.965 35.5328C17.1675 34.0673 17.7525 33.0753 18.3825 32.5116C13.3875 31.948 8.145 30.009 8.145 21.4189C8.145 18.9163 9 16.9096 10.4625 15.3089C10.2375 14.7452 9.45 12.4004 10.6875 9.35667C10.6875 9.35667 12.5775 8.74792 16.875 11.6564C18.6525 11.1604 20.5875 10.9124 22.5 10.9124C24.4125 10.9124 26.3475 11.1604 28.125 11.6564C32.4225 8.74792 34.3125 9.35667 34.3125 9.35667C35.55 12.4004 34.7625 14.7452 34.5375 15.3089C36 16.9096 36.855 18.9163 36.855 21.4189C36.855 30.0315 31.59 31.9254 26.5725 32.4891C27.3825 33.188 28.125 34.5633 28.125 36.6601C28.125 39.6813 28.125 42.1163 28.125 42.8378C28.125 43.4465 28.485 44.168 29.6325 43.9651C38.565 40.9439 45 32.5116 45 22.5462C45 19.5854 44.418 16.6536 43.2873 13.9181C42.1566 11.1827 40.4992 8.69724 38.4099 6.60363C36.3206 4.51002 33.8402 2.84928 31.1104 1.71623C28.3806 0.583175 25.4547 0 22.5 0Z" fill="white"/>
</svg>
