<svg width="45" height="38" viewBox="0 0 45 38" fill="none" xmlns="http://www.w3.org/2000/svg">
<path fill-rule="evenodd" clip-rule="evenodd" d="M42.7152 0.000272162L42.5197 0.00804248L42.2034 0.0379116L41.9722 0.0718772L41.4461 0.179431L40.9823 0.299924L40.25 0.522092L39.6006 0.740583L37.9947 1.33009L35.9033 2.15244L32.7278 3.45333L27.2583 5.75272L3.09344 16.359C1.13193 17.154 0.104391 17.9315 0.0109106 18.6917C-0.114857 19.7135 0.858014 20.2427 2.34314 20.7631L3.00927 20.987L4.98892 21.6288L6.04427 21.9584L7.13462 22.2752C8.59138 22.6803 10.0193 22.9985 10.9298 23.0186C12.2717 23.0481 13.7697 22.4843 15.4234 21.3271L26.8652 13.5024L30.6295 10.9768L31.9264 10.1311L32.5993 9.71301L32.8706 9.56627C32.8834 9.56099 32.8936 9.55745 32.9014 9.55565C33.1594 9.4968 33.5171 9.4208 33.7594 9.64035C34.0016 9.85991 33.977 10.2754 33.9521 10.3868C33.93 10.4832 33.7863 10.684 33.5468 10.9663L33.1191 11.4481C33.0369 11.5376 32.9495 11.6316 32.8574 11.7295L32.2504 12.3625L31.5481 13.075L29.9348 14.6694L28.6183 15.9459L22.5348 21.7505L21.9326 22.3652L20.9701 23.3185L20.6226 23.6821C19.2936 25.1217 18.7629 26.4059 21.3079 28.2422L21.6422 28.4747L31.3209 35.0987L32.96 36.2761C34.4187 37.3122 35.7993 38.1363 37.4537 37.9812C38.5617 37.8774 39.7045 36.8165 40.2854 33.6524L41.0388 29.43L41.733 25.3803L42.6431 19.8645L43.1789 16.4895L43.6844 13.1866L43.9955 11.0738L44.2793 9.06652L44.5306 7.19424L44.7437 5.48633C44.8399 4.67837 44.9196 3.94309 44.98 3.29701C45.0346 2.71207 44.966 1.9633 44.9107 1.63481C44.8554 1.30633 44.7402 0.838002 44.3209 0.491444C43.8245 0.0809621 43.0581 -0.00559287 42.7152 0.000272162Z" fill="white"/>
</svg>
