<svg width="112" height="113" viewBox="0 0 112 113" fill="none" xmlns="http://www.w3.org/2000/svg">
<g opacity="0.75">
<rect x="0.432449" y="1.49012e-08" width="31.8738" height="31.8738" transform="matrix(0.864897 -0.501949 0.864897 0.501949 28.0584 16.4671)" fill="url(#paint0_linear_1001_2843)" stroke="black" stroke-width="0.5"/>
<rect x="0.216224" y="0.124513" width="31.8738" height="32" transform="matrix(0.864897 -0.501949 2.19164e-08 1 56.0292 32.6085)" fill="url(#paint1_linear_1001_2843)" stroke="black" stroke-width="0.5"/>
<rect x="0.216224" y="0.375487" width="31.8738" height="32" transform="matrix(0.864897 0.501949 -2.19164e-08 1 28.0292 16.1415)" fill="#42F9C2" stroke="black" stroke-width="0.5"/>
</g>
<g opacity="0.75">
<rect x="0.432449" y="1.49012e-08" width="31.8738" height="31.8738" transform="matrix(0.864897 -0.501949 0.864897 0.501949 0.058425 64.4671)" fill="url(#paint2_linear_1001_2843)" stroke="black" stroke-width="0.5"/>
<rect x="0.216224" y="0.124513" width="31.8738" height="32" transform="matrix(0.864897 -0.501949 2.19164e-08 1 28.0292 80.6085)" fill="url(#paint3_linear_1001_2843)" stroke="black" stroke-width="0.5"/>
<rect x="0.216224" y="0.375487" width="31.8738" height="32" transform="matrix(0.864897 0.501949 -2.19164e-08 1 0.0292125 64.1415)" fill="#42F9C2" stroke="black" stroke-width="0.5"/>
</g>
<g opacity="0.75">
<rect x="0.432449" y="1.49012e-08" width="31.8738" height="31.8738" transform="matrix(0.864897 -0.501949 0.864897 0.501949 56.0584 64.4671)" fill="url(#paint4_linear_1001_2843)" stroke="black" stroke-width="0.5"/>
<rect x="0.216224" y="0.124513" width="31.8738" height="32" transform="matrix(0.864897 -0.501949 2.19164e-08 1 84.0292 80.6085)" fill="url(#paint5_linear_1001_2843)" stroke="black" stroke-width="0.5"/>
<rect x="0.216224" y="0.375487" width="31.8738" height="32" transform="matrix(0.864897 0.501949 -2.19164e-08 1 56.0292 64.1415)" fill="#42F9C2" stroke="black" stroke-width="0.5"/>
</g>
<defs>
<linearGradient id="paint0_linear_1001_2843" x1="3.13882" y1="-6.43139" x2="41.5536" y2="2.75271" gradientUnits="userSpaceOnUse">
<stop stop-color="#42F9C2"/>
<stop offset="1" stop-color="#082FD4"/>
</linearGradient>
<linearGradient id="paint1_linear_1001_2843" x1="3.13882" y1="-6.45646" x2="41.5697" y2="2.69581" gradientUnits="userSpaceOnUse">
<stop stop-color="#42F9C2"/>
<stop offset="1" stop-color="#082FD4"/>
</linearGradient>
<linearGradient id="paint2_linear_1001_2843" x1="3.13882" y1="-6.43139" x2="41.5536" y2="2.75271" gradientUnits="userSpaceOnUse">
<stop stop-color="#42F9C2"/>
<stop offset="1" stop-color="#082FD4"/>
</linearGradient>
<linearGradient id="paint3_linear_1001_2843" x1="3.13882" y1="-6.45646" x2="41.5697" y2="2.69581" gradientUnits="userSpaceOnUse">
<stop stop-color="#42F9C2"/>
<stop offset="1" stop-color="#082FD4"/>
</linearGradient>
<linearGradient id="paint4_linear_1001_2843" x1="3.13882" y1="-6.43139" x2="41.5536" y2="2.75271" gradientUnits="userSpaceOnUse">
<stop stop-color="#42F9C2"/>
<stop offset="1" stop-color="#082FD4"/>
</linearGradient>
<linearGradient id="paint5_linear_1001_2843" x1="3.13882" y1="-6.45646" x2="41.5697" y2="2.69581" gradientUnits="userSpaceOnUse">
<stop stop-color="#42F9C2"/>
<stop offset="1" stop-color="#082FD4"/>
</linearGradient>
</defs>
</svg>
