<svg width="45" height="36" viewBox="0 0 45 36" fill="none" xmlns="http://www.w3.org/2000/svg">
<path d="M45 4.23529C43.3437 4.97647 41.5583 5.46353 39.7084 5.69647C41.6013 4.57412 43.0641 2.79529 43.7524 0.65647C41.967 1.71529 39.988 2.45647 37.9015 2.88C36.2022 1.05882 33.8145 0 31.1042 0C26.0492 0 21.9192 4.06588 21.9192 9.08471C21.9192 9.80471 22.0053 10.5035 22.1558 11.16C14.4981 10.7788 7.67925 7.15765 3.14054 1.67294C2.34465 3.00706 1.89293 4.57412 1.89293 6.22588C1.89293 9.38118 3.50621 12.1765 6.00143 13.7647C4.47419 13.7647 3.05449 13.3412 1.80688 12.7059C1.80688 12.7059 1.80688 12.7059 1.80688 12.7694C1.80688 17.1741 4.99044 20.8588 9.2065 21.6847C8.43212 21.8965 7.61472 22.0024 6.77581 22.0024C6.19503 22.0024 5.61425 21.9388 5.05497 21.8329C6.21654 25.4118 9.59369 28.08 13.6592 28.1435C10.5186 30.6 6.5392 32.04 2.19407 32.04C1.46272 32.04 0.731358 31.9976 0 31.9129C4.087 34.4965 8.94837 36 14.1539 36C31.1042 36 40.4183 22.1506 40.4183 10.1435C40.4183 9.74118 40.4183 9.36 40.3967 8.95765C42.2036 7.68706 43.7524 6.07765 45 4.23529Z" fill="white"/>
</svg>
