<svg width="45" height="31" viewBox="0 0 45 31" fill="none" xmlns="http://www.w3.org/2000/svg">
<path d="M18 22.1429L29.6775 15.5L18 8.85714V22.1429ZM44.01 4.805C44.3025 5.84571 44.505 7.24071 44.64 9.01214C44.7975 10.7836 44.865 12.3114 44.865 13.64L45 15.5C45 20.3493 44.64 23.9143 44.01 26.195C43.4475 28.1879 42.1425 29.4721 40.1175 30.0257C39.06 30.3136 37.125 30.5129 34.155 30.6457C31.23 30.8007 28.5525 30.8671 26.0775 30.8671L22.5 31C13.0725 31 7.2 30.6457 4.8825 30.0257C2.8575 29.4721 1.5525 28.1879 0.99 26.195C0.6975 25.1543 0.495 23.7593 0.36 21.9879C0.2025 20.2164 0.135 18.6886 0.135 17.36L0 15.5C0 10.6507 0.36 7.08571 0.99 4.805C1.5525 2.81214 2.8575 1.52786 4.8825 0.974286C5.94 0.686429 7.875 0.487143 10.845 0.354285C13.77 0.199285 16.4475 0.132857 18.9225 0.132857L22.5 0C31.9275 0 37.8 0.354286 40.1175 0.974286C42.1425 1.52786 43.4475 2.81214 44.01 4.805Z" fill="white"/>
</svg>
